<svg xmlns="http://www.w3.org/2000/svg" viewBox="0 0 78.143 62.993"><path fill="#A0A0A0" d="M78.143 62.993H0V0h78.143v62.993zM2.632 60.36H75.51V2.633H2.632V60.36z"/><path fill="#A0A0A0" d="M0 8.34h70.142v2.633H0zM6.054 4.292h2.723v2.633H6.054zM11.499 4.292h2.722v2.633h-2.722zM16.942 4.292h2.723v2.633h-2.723zM70.142 32.888h-2.633V18.224H10.632v12.031h54.153v2.633H8V15.591h62.142zM25.497 46.03H8v-9.42h17.497v9.42zm-14.865-2.633h12.231v-4.154H10.632v4.154zM47.82 46.03H30.323v-9.42H47.82v9.42zm-14.864-2.633h12.231v-4.154H32.956v4.154zM70.142 46.03H52.645v-9.42h17.497v9.42zm-14.864-2.633h12.231v-4.154H55.278v4.154zM8 48.298h17.497v2.633H8zM8 53.2h10.259v2.633H8zM30.323 48.298H47.82v2.633H30.323zM30.323 53.2h10.259v2.633H30.323zM52.645 48.298h17.497v2.633H52.645zM52.645 53.2h10.26v2.633h-10.26z"/></svg>