<svg xmlns="http://www.w3.org/2000/svg" viewBox="0 0 48 46"><path fill-rule="evenodd" fill="#A0A0A0" d="M44 25.08c0 .399-.4.798-.8.798l-29.202 3.984c.799 1.395 2.4 2.191 4 2.191H40.8c.6 0 1 .399 1 .997s-.4.996-1 .996H17.798c-3.2 0-6.2-2.39-6.8-5.579L6.197 4.162h-5.2c-.6 0-1.001-.399-1.001-.997 0-.597.401-.996 1-.996h6.001c.4 0 1 .399 1 .797l1 5.18h15.002v1.793H9.397l3.6 17.931L42.2 24.085l3.401-14.146H29.777V8.146H47c.4 0 .601.2.801.398.2.199.2.598.2.598L44 25.08zM32.104 12.968a.897.897 0 0 1 1.267 0 .89.89 0 0 1 0 1.263l-5.8 5.778-.005.003a.891.891 0 0 1-.629.258.887.887 0 0 1-.343-.069.881.881 0 0 1-.291-.193l-5.8-5.777a.89.89 0 0 1 0-1.263.899.899 0 0 1 1.268 0l4.269 4.253V.889c0-.493.402-.893.897-.893s.896.4.896.893v16.333l4.271-4.254zm-15.106 23.07c2.8 0 5 2.192 5 4.982 0 2.788-2.2 4.98-5 4.98-2.801 0-5.001-2.192-5.001-4.98 0-2.79 2.2-4.982 5.001-4.982zm0 7.97c1.6 0 3-1.395 3-2.988 0-1.595-1.4-2.99-3-2.99-1.601 0-3 1.395-3 2.99 0 1.593 1.399 2.988 3 2.988zM37 36.038c2.8 0 5 2.192 5 4.982 0 2.788-2.2 4.98-5 4.98s-5.001-2.192-5.001-4.98c0-2.79 2.2-4.982 5.001-4.982zm0 7.97c1.6 0 3-1.395 3-2.988 0-1.595-1.4-2.99-3-2.99s-3.001 1.395-3.001 2.99c0 1.593 1.401 2.988 3.001 2.988z"/> </svg>