<svg xmlns="http://www.w3.org/2000/svg" viewBox="0 0 69.822 76.427"><path fill="#A0A0A0" d="M52.408 76.427H17.703l1.786-11.486H50.62l1.788 11.486zm-31.633-2.633h28.559l-.968-6.221H21.743l-.968 6.221zM47.165 61.63l-2.403-1.076 6.227-13.915-11.844-31.007h-5.407v-2.633h7.219l12.88 33.72z"/><path fill="#A0A0A0" d="M24.075 67.579l-2.633-.012.038-8.611-5.465-12.238 13.026-34.102 2.459.94L18.862 46.64l5.253 11.759zM33.738 12.999h2.633v30.637h-2.633z"/><path fill="#A0A0A0" d="M34.911 52.915c-3.095 0-5.613-2.519-5.613-5.613s2.519-5.613 5.613-5.613 5.613 2.519 5.613 5.613-2.518 5.613-5.613 5.613zm0-8.594c-1.644 0-2.98 1.337-2.98 2.98s1.337 2.98 2.98 2.98 2.98-1.337 2.98-2.98-1.336-2.98-2.98-2.98zM39.313 8.804H30.51V0h8.804v8.804zm-6.17-2.633h3.538V2.633h-3.538v3.538zM69.822 8.804h-8.804V0h8.804v8.804zm-6.171-2.633h3.538V2.633h-3.538v3.538zM69.903 37.313H61.1v-8.804h8.804v8.804zm-6.171-2.633h3.538v-3.538h-3.538v3.538zM8.804 37.313H0v-8.804h8.804v8.804zM2.633 34.68h3.538v-3.538H2.633v3.538zM8.804 8.804H0V0h8.804v8.804zM2.633 6.171h3.538V2.633H2.633v3.538z"/><path fill="#A0A0A0" d="M5.953 29.996l-2.611-.33C4.413 21.19 11.726 4.755 31.73 3.216l.201 2.625C13.621 7.249 6.932 22.258 5.953 29.996zM63.469 25.066C62.128 14.334 48.877 6.489 42.489 6.489V3.856c7.37 0 22.059 8.612 23.591 20.884l-2.611.326z"/> <path fill="#A0A0A0" d="M42.502 3.084l15.458.127-.022 2.633-15.458-.127zM14.267 3.212h17.564v2.633H14.267z"/></svg>