<svg xmlns="http://www.w3.org/2000/svg" viewBox="0 0 52 52"><path fill-rule="evenodd" fill="#A0A0A0" d="M50.139 36.334l-5.688 5.689c-1.342 1.342-1.386 2.631-1.387 2.685v.804c.896 0 1.625.729 1.625 1.625v4.876h-1.625v-4.876H32.501v4.876h-1.626v-4.876c0-.896.73-1.625 1.626-1.625v-5.689c0-.113.021-2.796 1.863-4.638l8.363-8.364h1.149a3.254 3.254 0 0 1 3.251 3.25v1.149l-5.926 5.927-1.149-1.149 5.45-5.451v-.476c0-.896-.73-1.625-1.626-1.625H43.4l-7.887 7.888c-1.372 1.372-1.387 3.468-1.387 3.489v5.689h7.313v-.813c0-.08.021-1.983 1.863-3.825l5.688-5.689c1.342-1.341 1.386-2.631 1.387-2.685V19.507a1.626 1.626 0 0 0-3.25 0v6.501h-1.625v-6.501a3.253 3.253 0 0 1 3.25-3.251 3.254 3.254 0 0 1 3.25 3.251v13.002c0 .08-.021 1.983-1.863 3.825zm-7.23-16.903l-3.48.871c-.055.221-.117.447-.187.679l2.576 2.493-.23.519a16.978 16.978 0 0 1-1.809 3.114l-.334.458L36 26.581c-.16.167-.323.331-.491.49l.985 3.446-.458.334a17.086 17.086 0 0 1-3.113 1.808l-.519.231-2.493-2.577c-.232.07-.458.132-.679.186l-.871 3.482-.566.059c-.603.063-1.207.095-1.795.095-.588 0-1.192-.032-1.795-.095l-.566-.059-.871-3.482a13.19 13.19 0 0 1-.679-.186l-2.493 2.577-.519-.231a17.094 17.094 0 0 1-3.114-1.808l-.457-.334.984-3.446a14.15 14.15 0 0 1-.49-.49l-3.446.984-.334-.458a17.03 17.03 0 0 1-1.808-3.114l-.23-.519 2.576-2.493c-.07-.232-.132-.458-.187-.679l-3.48-.871-.059-.566a17.506 17.506 0 0 1-.096-1.796c0-.583.033-1.187.096-1.796l.059-.566 3.48-.87c.055-.222.117-.448.187-.679l-2.576-2.494.23-.519a17.056 17.056 0 0 1 1.808-3.113l.334-.459L16 7.558c.159-.167.323-.331.49-.49l-.984-3.446.457-.334a17.094 17.094 0 0 1 3.114-1.808l.519-.232 2.493 2.578c.231-.07.458-.132.679-.187l.871-3.48.566-.059a16.83 16.83 0 0 1 3.59 0l.566.059.871 3.48c.221.055.447.117.679.187l2.493-2.578.519.232a17.086 17.086 0 0 1 3.113 1.808l.458.334-.985 3.446c.168.159.331.323.491.49l3.445-.985.334.459c.722.988 1.33 2.036 1.809 3.113l.23.519-2.576 2.494c.07.231.132.457.187.679l3.48.87.059.566c.063.609.096 1.213.096 1.796 0 .584-.033 1.188-.096 1.796l-.059.566zm-1.508-3.426l-3.351-.838-.101-.504c-.094-.466-.226-.95-.404-1.479l-.164-.486 2.483-2.403c-.31-.63-.669-1.248-1.073-1.844l-3.32.948-.34-.384c-.336-.38-.698-.743-1.078-1.079l-.384-.339.948-3.321a15.551 15.551 0 0 0-1.844-1.072l-2.401 2.484-.487-.164a11.86 11.86 0 0 0-1.48-.404l-.503-.102-.839-3.351a14.79 14.79 0 0 0-2.126 0l-.839 3.351-.503.102c-.466.093-.95.225-1.48.404l-.487.164-2.401-2.484c-.631.311-1.249.669-1.844 1.072l.948 3.321-.384.339c-.38.336-.742.699-1.078 1.079l-.34.384-3.32-.948a15.31 15.31 0 0 0-1.073 1.844l2.483 2.403-.164.486c-.178.529-.31 1.013-.404 1.479l-.101.504-3.351.838c-.025.361-.038.717-.038 1.064 0 .347.013.703.038 1.064l3.351.839.101.503c.094.466.226.95.405 1.481l.163.486-2.483 2.402c.31.63.669 1.247 1.073 1.844l3.32-.949.34.384c.336.38.698.743 1.078 1.079l.384.339-.948 3.321a15.56 15.56 0 0 0 1.844 1.073l2.401-2.483.487.163c.531.179 1.015.311 1.479.404l.504.101.839 3.352c.715.05 1.41.05 2.126 0l.839-3.352.504-.101c.464-.093.948-.225 1.479-.404l.487-.163 2.401 2.483a15.56 15.56 0 0 0 1.844-1.073l-.948-3.321.384-.339c.38-.336.742-.699 1.078-1.079l.34-.384 3.32.949c.404-.597.763-1.214 1.073-1.844l-2.483-2.402.163-.486a12.11 12.11 0 0 0 .405-1.481l.101-.503 3.351-.839c.025-.361.038-.717.038-1.064 0-.347-.013-.703-.038-1.064zM26 26.821c-5.377 0-9.751-4.375-9.751-9.752 0-5.377 4.374-9.752 9.751-9.752s9.751 4.375 9.751 9.752c0 5.377-4.374 9.752-9.751 9.752zm0-17.879c-4.48 0-8.126 3.646-8.126 8.127 0 4.481 3.646 8.126 8.126 8.126 4.48 0 8.126-3.645 8.126-8.126S30.48 8.942 26 8.942zm0 14.628a6.509 6.509 0 0 1-6.501-6.501A6.509 6.509 0 0 1 26 10.568a6.509 6.509 0 0 1 6.501 6.501A6.509 6.509 0 0 1 26 23.57zm0-11.377a4.88 4.88 0 0 0-4.875 4.876A4.88 4.88 0 0 0 26 21.945a4.88 4.88 0 0 0 4.875-4.876A4.88 4.88 0 0 0 26 12.193zM11.948 35.998l-1.149 1.149-5.926-5.927v-1.149a3.254 3.254 0 0 1 3.25-3.25h1.15l8.363 8.364c1.842 1.842 1.863 4.525 1.863 4.638v5.689c.896 0 1.626.729 1.626 1.625v4.876h-1.626v-4.876H8.936v4.876H7.311v-4.876c0-.896.729-1.625 1.625-1.625v-.813c-.001-.045-.045-1.334-1.387-2.676l-5.688-5.689C.019 34.492-.002 32.589-.002 32.509V19.507a3.254 3.254 0 0 1 3.25-3.251 3.253 3.253 0 0 1 3.25 3.251v6.501H4.873v-6.501a1.626 1.626 0 0 0-3.25 0v13.002c.001.045.045 1.335 1.387 2.676l5.688 5.689c1.842 1.842 1.863 3.745 1.863 3.825v.813h7.313v-5.689c0-.019-.029-2.131-1.387-3.489L8.6 28.446h-.477c-.895 0-1.625.729-1.625 1.625v.476l5.45 5.451z"/></svg>