<svg xmlns="http://www.w3.org/2000/svg" viewBox="0 0 80.43 67.041"><path fill="#A0A0A0" d="M80.43 56.469H0V0h80.43v2.633H2.633v51.203h75.164V6.354h2.633z"/><path fill="#A0A0A0" d="M51.741 67.041H28.69V53.836h21.735v2.633H31.323v7.939h17.785v-5.562h2.633z"/><path fill="#A0A0A0" d="M22.69 64.408h35.051v2.633H22.69zM1.316 44.836h71.702v2.633H1.316zM72.917 40.437H56.425V6.984h16.492v33.453zm-13.859-2.633h11.227V9.617H59.058v28.187zM8.029 6.984h4.219v2.633H8.029zM8.029 12.347h4.219v2.633H8.029zM8.029 17.71h4.219v2.633H8.029zM8.029 23.072h4.219v2.633H8.029zM8.029 28.436h4.219v2.633H8.029z"/><path fill="#A0A0A0" d="M61.426 12.121h6.489v2.633h-6.489zM61.426 17.367h6.489V20h-6.489zM61.426 22.615h6.489v2.633h-6.489zM61.426 27.862h6.489v2.633h-6.489zM61.426 33.109h6.489v2.633h-6.489zM16.328 38.037h35.587v2.633H16.328zM16.328 6.984h35.587v2.633H16.328zM48.208 33.561l-4.67-4.97-4.67 4.97-1.918-1.803 6.588-7.011 6.588 7.011zM20.787 33.561l-1.918-1.803 12.77-13.589 7.822 8.229-1.907 1.814-5.904-6.211zM46.038 22.035c-2.104 0-3.816-1.712-3.816-3.816s1.712-3.816 3.816-3.816 3.816 1.712 3.816 3.816-1.711 3.816-3.816 3.816zm0-5a1.185 1.185 0 1 0 1.184 1.184c0-.653-.532-1.184-1.184-1.184z"/></svg>